<?xml version="1.0" encoding="UTF-8"?>
<svg id="Layer_1" xmlns="http://www.w3.org/2000/svg" version="1.1" viewBox="0 0 865 288">
  <!-- Generator: Adobe Illustrator 29.5.1, SVG Export Plug-In . SVG Version: 2.1.0 Build 141)  -->
  <defs>
    <style>
      .st0 {
        fill: #1d284d;
      }

      .st1 {
        fill: #1c59a5;
      }

      .st2 {
        fill: #1c2849;
      }

      .st3 {
        fill: #1c284a;
      }
    </style>
  </defs>
  <path class="st2" d="M863.52,200.81c0,11.17-2.17,20.58-6.51,28.24s-10.2,13.45-17.58,17.39-15.61,5.9-24.69,5.9-17.4-1.98-24.76-5.95-13.21-9.78-17.54-17.44c-4.33-7.66-6.49-17.04-6.49-28.14s2.16-20.58,6.49-28.24,10.17-13.45,17.54-17.39c7.36-3.93,15.62-5.9,24.76-5.9s17.31,1.97,24.69,5.9c7.38,3.94,13.24,9.73,17.58,17.39s6.51,17.07,6.51,28.24ZM836.62,200.81c0-6.01-.75-11.08-2.34-15.21-1.58-4.13-4.31-8.03-7.4-10.16-3.09-2.14-7.64-3.74-12.15-3.74s-8.99,1.67-12.07,3.81c-3.09,2.14-5.86,5.96-7.45,10.09-1.58,4.13-2.34,9.2-2.34,15.21s1.13,11.83,2.72,15.96c1.58,4.13,3.9,7.28,6.99,9.42,3.09,2.14,7.65,3.58,12.15,3.58s9.13-1.39,12.21-3.53c3.09-2.14,5.75-6.1,7.33-10.23,1.58-4.13,2.34-9.2,2.34-15.21h.01Z"/>
  <path class="st2" d="M726.04,183.49c-.86-1.74-1.62-3.64-2.53-4.97-.91-1.32-2-2.5-3.34-3.43-1.35-.93-2.95-1.6-4.72-2.07-1.77-.47-4.29-.9-6.4-.9-4.55,0-9.05,1.24-12.24,3.43-3.2,2.19-5.66,5.32-7.33,9.44s-2.68,9.73-2.68,15.55.85,10.92,2.44,15.1,4.23,7.88,7.38,10.1,7.56,3.68,12.24,3.68c4.13,0,8.21-.79,10.96-2s4.79-2.93,6.16-5.15,2.57-5.48,2.57-8.49l3.5.49h-22.48l-.02-18.97,43.94-.04v13.52c0,9.15-1.78,17.12-5.63,23.61s-9.11,11.49-15.85,14.94-14.65,4.99-23.35,4.99c-9.71,0-18.24-2.08-25.58-6.23s-13.07-10.07-17.18-17.75c-4.11-7.68-6.16-16.82-6.16-27.41,0-8.3,1.26-15.66,3.78-22.07,2.52-6.41,6.02-11.83,10.5-16.26s9.66-7.78,15.55-10.05c5.88-2.27,12.18-3.41,18.91-3.41,5.91,0,11.41.78,16.49,2.46,5.08,1.68,9.58,4.05,13.5,7.14,3.91,3.09,7.22,6.67,9.62,10.89s4.05,8.8,4.57,13.83h-26.61v.03Z"/>
  <path class="st2" d="M569.35,251.07v-100.52h42.75c7.35,0,13.78,1.36,19.29,4.07,5.51,2.72,9.8,6.63,12.86,11.73,3.06,5.1,4.59,11.22,4.59,18.36s-1.57,13.27-4.71,18.21c-3.14,4.94-7.85,8.36-13.51,10.88s-11.95,3.71-19.49,3.71l-25.53-.51.03-20.16,20.09.26c3.16,0,5.86-.27,8.1-1.07s4.55-2.04,5.76-3.81,2.13-4.66,2.13-7.51-.68-6.06-1.89-7.88-3.77-3.53-6.01-4.39c-2.24-.87-4.94-1.2-8.1-1.2l-10.52.05-.08,79.77h-25.76,0ZM628.06,204.93l24.07,46.14h-28.3l-22.35-46.14h26.58,0Z"/>
  <path class="st0" d="M490.36,150.55h35.06l33.37,100.52h-27.88l-5.91-20.27-33.79.42-6.76,19.85h-27.45l33.37-100.52h0ZM497.12,211.37h21.54l-10.14-33.79-11.4,33.79h0Z"/>
  <path class="st2" d="M450.24,187.71h-26.19s-1.36-4.49-1.73-5.67-2.2-4.26-3.64-5.62c-1.44-1.35-4.7-2.84-6.02-3.38s-5.31-1.01-7.9-1.01c-4.54,0-8.88,2.06-12.01,4.28s-5.08,5.4-6.68,9.55-2.16,9.13-2.16,14.94c0,6.14.62,11.27,2.26,15.4,1.64,4.13,4.41,7.82,7.52,9.89,3.11,2.07,7.44,3.27,11.82,3.27,2.5,0,5.36-.44,7.33-1.08,1.98-.64,4.59-2.19,6.04-3.39,1.46-1.21,2.45-2.69,3.22-4.17s1.61-3.4,1.94-5.55l26.19.37c-.32,4.24-1.51,7.93-3.55,12.32-2.04,4.39-4.93,8.44-8.68,12.15s-8.37,6.68-13.88,8.94c-5.51,2.25-11.91,3.38-19.2,3.38-9.14,0-17.33-1.98-24.58-5.93s-12.96-9.76-17.16-17.43-6.3-17.06-6.3-28.16,2.14-20.58,6.42-28.23c4.28-7.66,10.05-13.45,17.31-17.39,7.26-3.93,15.36-5.9,24.31-5.9,6.29,0,12.07.87,17.36,2.6,5.28,1.73,9.92,4.25,13.9,7.57,3.99,3.31,7.2,7.39,9.63,12.22s3.9,9.82,4.42,16.06v-.03Z"/>
  <path class="st3" d="M614.12,36.51h35.48l33.37,100.1h-27.88l-5.91-19.85-34.21.42-6.34,19.43h-27.88l33.37-100.1h0ZM631.43,63.12l-2.96,8.87-6.76,21.96-.84,3.38h21.96l-1.27-4.65-8.87-28.72-.42-.84h-.84,0Z"/>
  <path class="st2" d="M501.35,36.51h86.58v20.7l-29.99.42-.42,78.98h-25.76V57.2h-30.41v-20.7h0Z"/>
  <path class="st3" d="M465.87,36.51h26.19v100.1h-26.19V36.51Z"/>
  <path class="st2" d="M353.52,36.51h29.57l21.96,71.38,8.02-26.61,13.52-44.77h29.14l-33.37,100.1h-35.06l-33.79-100.1h.01Z"/>
  <path class="st2" d="M24.92,34.4l228.92,227.65s-3.58,4.58-16.31,13.73-16.63,10.34-16.63,10.34L1.27,67.76s.84-3.21,10.9-17.23c10.06-14.02,12.76-16.14,12.76-16.14h-.01Z"/>
  <path class="st2" d="M262.71,34.82s4.55,1.6,13.88,14.73,10.19,17.79,10.19,17.79l-75.6,76.45,74.76,77.71s-1.75,4.43-10.51,16.5-12.3,15.17-12.3,15.17l-109.81-109.1,109.39-109.26h0Z"/>
  <path class="st1" d="M67.16,1.45l77.29,75.6L219.63,1.45s5.49,1.45,17.32,10.14c11.83,8.69,15.63,14.36,15.63,14.36l-108.55,108.55L35.06,24.26s2.27-2.9,15.79-12.41S67.16,1.45,67.16,1.45Z"/>
</svg>