<?xml version="1.0" encoding="UTF-8"?>
<svg id="Layer_1" xmlns="http://www.w3.org/2000/svg" version="1.1" viewBox="0 0 288 288">
  <!-- Generator: Adobe Illustrator 29.5.1, SVG Export Plug-In . SVG Version: 2.1.0 Build 141)  -->
  <defs>
    <style>
      .st0 {
        fill: #1a59a5;
      }

      .st1 {
        fill: #1c2a4d;
      }
    </style>
  </defs>
  <path class="st1" d="M25,34.25l228.75,228-1.5,1.75-2.5,2.25-3.25,2.75-7.5,5.75-4.75,3.25-4.25,2.75-6.25,3.75-3,1.75L1.25,67.75l.5-1.25,3.5-6.25,3.5-5.5,3.5-5,3.5-4.75,3.25-4,3-3.5,2.25-2.5.75-.75Z"/>
  <path class="st1" d="M263.61,35.14s.55.6,2.39,2.61l2.75,3,2.75,3.5,2.5,3.25,3.25,4.5,3.75,5.75,3,5,2.75,4.75-76,76.5,75.75,76-.5,1.25-2.25,4.25-3,4.75-2.5,4-3.25,4.5-2.25,3-2.75,3.5-2.75,3.25-1.75,2-2.5,2.75-109.75-109,110.36-109.11Z"/>
  <path class="st0" d="M219.75,1.25l1.5.5,5.75,3.25,6,3.75,5,3.5,4,3,3.5,2.75,4.25,3.5,2.25,2,1.25,1-109.75,110L34,25.25l1.25-1.25,3.25-3,2.75-2.25,3.75-3,4.75-3.5,4-2.75,4.25-2.75,3.75-2.25,5.25-3,76.5,75.5L219.75,1.25Z"/>
</svg>