<svg xmlns="http://www.w3.org/2000/svg" preserveAspectRatio="xMinYMin meet" viewBox="0 0 1440 615" fill="none">
    <path d="M-140.101 0.506836C-110.854 0.79021 -90.3212 9.92805 -69.8008 19.0264C-48.9598 28.2668 -28.1294 37.4678 1.91699 37.4678C31.9628 37.4677 52.6515 28.2678 73.4219 19.0273C94.1986 9.78404 115.057 0.500068 145.333 0.5C175.609 0.500001 196.468 9.78401 217.245 19.0273C238.016 28.2678 258.704 37.4678 288.75 37.4678C318.796 37.4678 339.484 28.2678 360.255 19.0273C381.032 9.78401 401.891 0.500002 432.167 0.5C462.443 0.500068 483.301 9.78404 504.078 19.0273C524.849 28.2678 545.537 37.4677 575.583 37.4678C605.629 37.4678 626.318 28.2679 647.089 19.0273C667.866 9.78405 688.724 0.500006 719 0.5C749.276 0.5 770.134 9.78405 790.911 19.0273C811.682 28.2679 832.371 37.4678 862.417 37.4678C892.463 37.4677 913.151 28.2678 933.922 19.0273C954.699 9.78405 975.557 0.500075 1005.83 0.5C1036.11 0.5 1056.97 9.78401 1077.75 19.0273C1098.52 28.2678 1119.2 37.4678 1149.25 37.4678C1179.3 37.4678 1199.98 28.2678 1220.75 19.0273C1241.53 9.78401 1262.39 0.5 1292.67 0.5C1322.94 0.500056 1343.8 9.78404 1364.58 19.0273C1385.35 28.2678 1406.04 37.4677 1436.08 37.4678C1464.25 37.4678 1484.45 29.3815 1504.1 20.7568L1511.95 17.2959C1531.59 8.66058 1551.66 0.500221 1579.5 0.5H1580V192.5H1444.5V615H-5.5V192.5H-142V0.5H-141.5L-140.101 0.506836Z" fill="url(#paint0_linear_180_356)"/>
    <defs>
        <linearGradient id="paint0_linear_180_356" x1="579.5" y1="-4.00098" x2="579.5" y2="615" gradientUnits="userSpaceOnUse">
            <stop offset="0.06" stop-color="#1D5AA6"/>
            <stop offset="0.7" stop-color="#1D5AA6" stop-opacity="0.6"/>
            <stop offset="1" stop-color="#1D5AA6" stop-opacity="0"/>
        </linearGradient>
    </defs>
</svg>