<svg xmlns="http://www.w3.org/2000/svg" preserveAspectRatio="xMinYMin meet" viewBox="0 0 1440 191" fill="#1C59A5">
    <path d="M-141.5 0C-81.7431 4.59068e-08 -58.4055 36.9677 1.91668 36.9677C62.2388 36.9677 85.0112 -1.70444e-06 145.333 0C205.655 1.70444e-06 228.428 36.9677 288.75 36.9677C349.072 36.9677 371.845 3.40887e-06 432.167 0C492.489 -3.40887e-06 515.261 36.9677 575.583 36.9677C635.905 36.9677 658.678 0 719 0C779.322 0 802.095 36.9677 862.417 36.9677C922.739 36.9677 945.511 0 1005.83 0C1066.16 0 1088.93 36.9677 1149.25 36.9677C1209.57 36.9677 1232.34 0 1292.67 0C1352.99 0 1375.76 36.9677 1436.08 36.9677C1496.41 36.9677 1520.34 0.00044615 1579.5 0V191H-141.5V0Z"/>
</svg>