<?xml version="1.0" encoding="UTF-8"?>
<svg fill="#FFFFFF" id="Layer_1" xmlns="http://www.w3.org/2000/svg" version="1.1" viewBox="0 0 100 100">
  <!-- Generator: Adobe Illustrator 29.5.1, SVG Export Plug-In . SVG Version: 2.1.0 Build 141)  -->
  <path d="M85.25,22.06h2.25l1.94.19,1.5.25,1.19.31,1.38.5,1.5.69,1.19.69.69.5.69.56.62.56.56.62.81,1.19.25.31.12.19h.06v2.19l-.25.12-.62.81-.31.38h-.12l-.12.25-.69.62-.81.62-.62.5-.75.5-.88.62-1.5.94-.94.56-1,.56-1.12.62-.75.44-1,.5-1.12.62-1.19.56-.75.44-1.44.69-.75.44-1.31.62-2,1-2.56,1.25-1.81.88-2,.94-.88.44-1.25.56-.25.31-.88,1.81-.75,1.69-1.19,2.56-.56,1.19-1.62,3.5-.75,1.62-.62,1.38-.44,1-.44.94-.69,1.5-.44.88-.69,1.5-.44.94-1.12,2.38-.94,2.06-.75,1.62-.31.75-.75,1.62-.81,1.75-.75,1.56-.62,1.12-.44.69-.56.88-.62.81-.62.75-.5.44-.69.69-.88.62-1.12.62-.94.44-2.19.88-.81.12h-.62l-.69-.12-.62-.44-.5-.56-.5-1-.12-.44v-1l.31-2.06.44-2.25.62-3.38.56-2.88.44-2.44.31-1.5.62-3.56.69-3.44.75-3.94.19-.88-.75.25-1.25.56-2.19.94-1.81.75-2.12.88-1.56.62-2.31.88-1.5.56-2.69.94-2,.62-2.75.81-3.56.88-3.5.62-1.88.25-1.75.12h-.88l-1.69-.12-1.12-.19-1.31-.38-.81-.31-.94-.56-.81-.69-.56-.62-.62-.94-.75-1.38-.88-1.88-1.5-3.38-.81-1.81-.5-1.12-.94-2.06-1.12-2.5-.62-1.5-.5-.94-.12-.12v-2.69l.56-.75.69-.75.94-.62.62-.31,1.12-.38,1-.19h.69l1.12.19,1,.38.88.44.88.56,1.75,1.31,1.06.75,1.31,1,.94.69.75.56,1.19.88.62.44,1.19.75.31.12.56-.06,1.25-.56,1.56-.69,1.81-.81,2.44-1.12,1.94-.88,1.25-.56,3.25-1.44,2.25-.94.19-.19-.62-.44-1.06-.62-1.44-.88-.81-.5-1.38-.81-1.19-.75-.81-.5-1.19-.75-1.62-1-1.38-.81-1.44-.88-1.12-.75-.69-.56-.31-.25-.44-.5-.44-.62-.31-.69-.06-.25v-.69l.25-.69.5-.62.5-.44.5-.38,1-.5,1.31-.62,1.25-.44,1.19-.31,1.31-.19h1.94l1.56.19,1.81.31,1.75.44,1.88.56,1.75.56,2.31.69,4.06,1.25,1.94.62,7.5,2.31.94.31.5.19.81.06,1.19-.56,1.44-.62,1.19-.56,1.25-.56,4.06-1.81,1-.44.94-.44,1-.44.94-.44,1.94-.88,2.25-1,2.5-1.12,2-.81,1.75-.56,1.56-.44,1.94-.38,2.12-.25.81-.06-.06.05ZM84.81,26.12l-1.56.19-1.81.38-1.81.5-1.88.69-1.88.81-1.25.56-2.25,1-1.25.56-1.31.56-.94.44-4.12,1.81-.94.44-1.25.56-1.56.69-1.38.62-1.94.88-2.56,1.12-1.31.56-1.81.81-1.38.62-1.12.5-1.88.81-1.94.88-2.25,1-1.5.69-1.25.56-1.88.81-1.81.81-1.19.5-.69.31-.94.44-2.25,1-2,.88-.75.38-1.44.62-.88.44-1.69.75-2.5,1.12-1.19.5-1.69.62-.62.19h-1.06l-.75-.19-.75-.31-1.19-.69-1-.69-3.25-2.44-1.31-1-.94-.69-1.12-.81-1.31-.81-.88-.38-1-.19-.31.06-.06.25.12.69.81,2,.75,1.75.88,2,.69,1.56,1,2.19.75,1.69.75,1.75.56,1.25.56,1.19.44.56.5.44,1,.38,1.19.25.62.06h2.62l2.44-.25,2.44-.44,2.62-.62,2.62-.75,1.88-.56,2.25-.75,2.62-.94,2.12-.81,4.56-1.88,1.88-.81,1.56-.69,1.75-.75,2.12-.94,1.81-.81,1.62-.69,1.25-.56.44-.06-.06.5-.44,1.62-.44,2.62-.75,4-.5,2.75-.44,2.25-.75,3.94-.88,4.69-.31,1.62-.5,2.81-.94,4.69v.38l.75-.19.56-.31.94-.75.5-.44.44-.5.06-.19h.12l.44-.62.56-.81.81-1.5.5-1,.94-2,.69-1.5.81-1.75.5-1.06.5-1.12.56-1.19.5-1.12.31-.62.5-1.12.75-1.62.94-2.06,1.06-2.25.81-1.75.56-1.25.56-1.19.75-1.62.56-1.25.56-1.19.62-1.38.44-.94.88-1.81.38-.94.5-1,.31-.5.31-.38,1.19-.5,3-1.5,1.06-.5,1-.5,3-1.44,2.06-1,1-.5,2.06-1.06,2.31-1.19,1.38-.75,1.75-.94,1.44-.81,1.06-.62,1.19-.75,1.12-.69.75-.5,1-.75.56-.44v-.12l.12-.06-.38-.5-1-.75-1-.62-1.19-.56-1.5-.5-2.19-.44-1.25-.12h-2.25.1ZM26.44,30l-1.25.19-.81.19-.12.12.06.25.62.56,1.25.75,1.44.88,1.25.75,1,.62,1.38.81,1.75,1.06,2.81,1.69,1.62,1,1.44.88.62.38.56.12,1-.38,2.25-1,1.62-.75,2.88-1.31,1.06-.44.56-.38-.25-.12-.69-.19-1.56-.5-6.56-2-7.31-2.25-2.75-.69-1.19-.19-.62-.06h-2.06Z"/>
  <path d="M99.94,55"/>
  <path d="M4.31,55"/>
</svg>