<?xml version="1.0" encoding="UTF-8"?>
<svg id="Layer_1" xmlns="http://www.w3.org/2000/svg" version="1.1" viewBox="0 0 100 100">
  <!-- Generator: Adobe Illustrator 29.5.1, SVG Export Plug-In . SVG Version: 2.1.0 Build 141)  -->
  <path d="M49.62,40.44h.44l1.06.31,1.44.5,1.06.31,3.06,1,5.31,1.81,2.25.75,2.56.88,2.69.88,2.25.75,2.19.75,2.25.75,4.44,1.44,2.25.75,2.38.81,4.5,1.5,2.19.75,1.5.5,1.06.5.88.62.38.5.06.56-.19.81-.69,1.5-.75,1.62-2.31,4.62-.62,1.31-.62,1.19-2.62,5.25-.62,1.19-.56,1.31-.31,1.06-.44,3-.31,2.94-.12,1.44.94.25,1.62.38,1.81.56,1.19.44,1.31.56,3.38,1.69,1.06.69.44.38v.12h.12l.31.44.12.38v.62l-.31.62-.69.69-.06.12h-.12l-.12.25-.44.31-.5-.06-1.12-.5-2.69-1.31-2.25-1-1.56-.56-1.31-.38-1.38-.25-1.19-.06h-1.75l-1.62.12-1.56.31-2.25.75-1.31.56-2.5,1-1.44.44-2.44.5-1.5.19h-2.69l-1.62-.19-1.69-.38-1.88-.56-1.69-.69-2.19-.94-1.69-.62-1.56-.38-1.56-.19-1.38-.06-1.94.12-1.44.25-1.38.38-1.81.69-1.56.69-2.06.81-1.25.38-2.44.5-1.56.19h-2.56l-1.75-.19-2.12-.5-1.69-.56-2-.81-1.88-.75-1.69-.56-1.69-.38-.38-.06-1.31-.06h-1.62l-1.38.12-1.44.25-1.31.38-1.88.69-1,.44-2.88,1.44-1.25.56-.69.19-.31-.06-.5-.44-.75-.75-.38-.75v-.69l.38-.62.38-.44.88-.56,1.12-.62,2.88-1.44,1.19-.5,1.19-.44,1.94-.5,2.19-.44.06-.19-.12-2.12-.31-3.25-.12-.94-.19-1.19-.38-1.06-.75-1.69-3.5-7-.62-1.19-.69-1.44-.56-1.06-.69-1.44-1.06-2.12-.81-1.88-.25-.75v-.44l.19-.5.44-.5.75-.44,1.5-.56,2.19-.75,2.56-.88,2.25-.75,3.12-1.06,2.25-.75,3.44-1.12,6.75-2.25,1.75-.62,7.5-2.5,3.12-1,2.06-.69,2.69-.88,1.12-.38,1.81-.69ZM49.5,44.94l-1.25.44-1.12.38-2.69.88-7.5,2.5-3.62,1.25-2.38.81-9,3-5,1.62-2.56.88-2.69.88-1.81.56-.5.25-.12.12.06.25.5.88,2.88,5.75.56,1.19,3.56,7.12.62,1.5.25,1.12.25,2.12.38,3.69.12,1.81.12.44,1.38.31,1.44.31,1.94.56,1.31.5,2,.88,1.5.56,1.5.44.88.19,1.81.19h2.38l1.69-.25,1.5-.38,1.69-.62,2.62-1.12,1.31-.5,2-.56,1.94-.38,1.31-.12h2.5l1.75.19,1.56.31,1.5.44,1.38.5,2.56,1.12,1.25.5,1.19.38,1.38.31,1.69.19h2.56l1.62-.25,1.5-.38,1.69-.62,2.06-.88,1.56-.62,1.56-.44,1.81-.38,1.19-.19.19-.12.12-.56.25-2.38.31-2.56.25-2.5.19-1.06.44-1,1.31-2.62.5-1.06.5-1,.88-1.69.62-1.31,2.75-5.5,1.31-2.69-.06-.19-2.19-.62-3.88-1.31-5.62-1.88-2.56-.88-2.69-.88-2.38-.81-4.5-1.5-4.25-1.44-2.56-.88-4.5-1.5-2.94-.94-2.12-.69-.62-.06h-.31Z"/>
  <path d="M49.38,3.12h.88l.81.25.56.31.25.38.12,1,.06,6.19,5.25.06,3.19.06,1.25.12.88.25.56.25.56.31.56.44.88.88.75,1.12.44.94.19.69.06.38.06,1.19v3.62l-.06,4.38h6.88l1.88.06,1.06.12.75.19,1,.5.75.56.75.75.69,1,.5.94.31,1.06.06.81v8.25l-.06,4.5-.12.81-.31.56-.44.44-.44.25-.25.06h-.56l-.81-.25-.69-.44-.38-.38-.12-.5-.06-.88-.06-10.5-.06-1.88-.12-.94-.25-.5-.5-.25-.38-.06-3.5-.06h-35.75l-11.75.06-.69.12-.38.19-.25.31-.25.62-.12,1.19-.06,12.19-.12.75-.38.56-.62.38-.56.19h-.94l-.69-.25-.44-.44-.31-.62-.12-.69-.06-1.44v-10.06l.06-1.25.19-1.19.25-.94.44-.88.5-.69.56-.62.5-.44.81-.56.75-.38,1-.25,1.69-.12,7.81-.06v-3.56l.06-5.25.12-.81.31-.94.56-1.06.5-.62.56-.62.88-.69.62-.38.94-.38.44-.12.5-.06,2.06-.06h4.06l3,.06v-2.12l.06-4.06.06-.81.19-.5.5-.44.5-.25.25-.06ZM44.62,15.56l-5.62.06-.75.12-.38.25-.25.94-.06.5-.06,1.25-.06,4.31v2.94h24.69l.19-.06.06-.12v-8.19l-.12-.88-.19-.62-.25-.25-.38-.12-.44-.06-5.12-.06h-11.25Z"/>
  <path d="M33.88,61.38h.81l.81.25.69.38.56.5.44.69.25.62.06.25v.81l-.31.88-.5.75-.44.44-.69.44-.62.25-.31.06-.81-.06-.75-.25-.62-.38-.5-.5-.5-.81-.25-.56-.06-.31v-.56l.12-.62.38-.75.56-.69.38-.31.81-.38.5-.12Z"/>
  <path d="M67.31,61.38h.62l.75.19.75.38.81.75.38.62.25,1-.06.62-.31.81-.44.62-.56.62-.81.5-.56.19h-.75l-.69-.19-.5-.25-.56-.44-.56-.62-.44-.88-.12-.44v-.75l.31-.94.38-.56.44-.5.69-.44.62-.25.38-.06Z"/>
</svg>