<?xml version="1.0" encoding="UTF-8"?>
<svg fill="#FFFFFF" id="Layer_1" xmlns="http://www.w3.org/2000/svg" version="1.1" viewBox="0 0 100 100">
  <!-- Generator: Adobe Illustrator 29.5.1, SVG Export Plug-In . SVG Version: 2.1.0 Build 141)  -->
  <path d="M49.65,41.06h.4l.97.28,1.32.46.97.28,2.81.92,4.87,1.66,2.06.69,2.35.81,2.47.81,2.06.69,2.01.69,2.06.69,4.07,1.32,2.06.69,2.18.74,4.13,1.38,2.01.69,1.38.46.97.46.81.57.35.46.06.51-.17.74-.63,1.38-.69,1.49-2.12,4.24-.57,1.2-.57,1.09-2.4,4.81-.57,1.09-.51,1.2-.28.97-.4,2.75-.28,2.7-.11,1.32.86.23,1.49.35,1.66.51,1.09.4,1.2.51,3.1,1.55.97.63.4.35v.11h.11l.28.4.11.35v.57l-.28.57-.63.63-.06.11h-.11l-.11.23-.4.28-.46-.06-1.03-.46-2.47-1.2-2.06-.92-1.43-.51-1.2-.35-1.27-.23-1.09-.06h-1.6l-1.49.11-1.43.28-2.06.69-1.2.51-2.29.92-1.32.4-2.24.46-1.38.17h-2.47l-1.49-.17-1.55-.35-1.72-.51-1.55-.63-2.01-.86-1.55-.57-1.43-.35-1.43-.17-1.27-.06-1.78.11-1.32.23-1.27.35-1.66.63-1.43.63-1.89.74-1.15.35-2.24.46-1.43.17h-2.35l-1.6-.17-1.94-.46-1.55-.51-1.83-.74-1.72-.69-1.55-.51-1.55-.35-.35-.06-1.2-.06h-1.49l-1.27.11-1.32.23-1.2.35-1.72.63-.92.4-2.64,1.32-1.15.51-.63.17-.28-.06-.46-.4-.69-.69-.35-.69v-.63l.35-.57.35-.4.81-.51,1.03-.57,2.64-1.32,1.09-.46,1.09-.4,1.78-.46,2.01-.4.06-.17-.11-1.94-.28-2.98-.11-.86-.17-1.09-.35-.97-.69-1.55-3.21-6.42-.57-1.09-.63-1.32-.51-.97-.63-1.32-.97-1.94-.74-1.72-.23-.69v-.4l.17-.46.4-.46.69-.4,1.38-.51,2.01-.69,2.35-.81,2.06-.69,2.86-.97,2.06-.69,3.15-1.03,6.19-2.06,1.6-.57,6.88-2.29,2.86-.92,1.89-.63,2.47-.81,1.03-.35,1.66-.63-.03.02ZM49.54,45.19l-1.15.4-1.03.35-2.47.81-6.88,2.29-3.32,1.15-2.18.74-8.25,2.75-4.59,1.49-2.35.81-2.47.81-1.66.51-.46.23-.11.11.06.23.46.81,2.64,5.27.51,1.09,3.26,6.53.57,1.38.23,1.03.23,1.94.35,3.38.11,1.66.11.4,1.27.28,1.32.28,1.78.51,1.2.46,1.83.81,1.38.51,1.38.4.81.17,1.66.17h2.18l1.55-.23,1.38-.35,1.55-.57,2.4-1.03,1.2-.46,1.83-.51,1.78-.35,1.2-.11h2.29l1.6.17,1.43.28,1.38.4,1.27.46,2.35,1.03,1.15.46,1.09.35,1.27.28,1.55.17h2.35l1.49-.23,1.38-.35,1.55-.57,1.89-.81,1.43-.57,1.43-.4,1.66-.35,1.09-.17.17-.11.11-.51.23-2.18.28-2.35.23-2.29.17-.97.4-.92,1.2-2.4.46-.97.46-.92.81-1.55.57-1.2,2.52-5.04,1.2-2.47-.06-.17-2.01-.57-3.56-1.2-5.15-1.72-2.35-.81-2.47-.81-2.18-.74-4.13-1.38-3.9-1.32-2.35-.81-4.13-1.38-2.7-.86-1.94-.63-.57-.06h-.29Z"/>
  <path d="M49.43,6.84h.81l.74.23.51.28.23.35.11.92.06,5.68,4.81.06,2.93.06,1.15.11.81.23.51.23.51.28.51.4.81.81.69,1.03.4.86.17.63.06.35.06,1.09v3.32l-.06,4.02h6.31l1.72.06.97.11.69.17.92.46.69.51.69.69.63.92.46.86.28.97.06.74v7.57l-.06,4.13-.11.74-.28.51-.4.4-.4.23-.23.06h-.51l-.74-.23-.63-.4-.35-.35-.11-.46-.06-.81-.06-9.63-.06-1.72-.11-.86-.23-.46-.46-.23-.35-.06-3.21-.06h-32.78l-10.78.06-.63.11-.35.17-.23.28-.23.57-.11,1.09-.06,11.18-.11.69-.35.51-.57.35-.51.17h-.86l-.63-.23-.4-.4-.28-.57-.11-.63-.06-1.32v-9.23l.06-1.15.17-1.09.23-.86.4-.81.46-.63.51-.57.46-.4.74-.51.69-.35.92-.23,1.55-.11,7.16-.06v-3.26l.06-4.81.11-.74.28-.86.51-.97.46-.57.51-.57.81-.63.57-.35.86-.35.4-.11.46-.06,1.89-.06h3.72l2.75.06v-1.94l.06-3.72.06-.74.17-.46.46-.4.46-.23.23-.06h0ZM45.06,18.25l-5.15.06-.69.11-.35.23-.23.86-.06.46-.06,1.15-.06,3.95v2.7h22.64l.17-.06.06-.11v-7.51l-.11-.81-.17-.57-.23-.23-.35-.11-.4-.06-4.7-.06h-10.33Z"/>
  <path d="M35.22,60.27h.74l.74.23.63.35.51.46.4.63.23.57.06.23v.74l-.28.81-.46.69-.4.4-.63.4-.57.23-.28.06-.74-.06-.69-.23-.57-.35-.46-.46-.46-.74-.23-.51-.06-.28v-.51l.11-.57.35-.69.51-.63.35-.28.74-.35.46-.11v-.02Z"/>
  <path d="M65.87,60.27h.57l.69.17.69.35.74.69.35.57.23.92-.06.57-.28.74-.4.57-.51.57-.74.46-.51.17h-.69l-.63-.17-.46-.23-.51-.4-.51-.57-.4-.81-.11-.4v-.69l.28-.86.35-.51.4-.46.63-.4.57-.23.35-.06-.02.02Z"/>
</svg>