<?xml version="1.0" encoding="UTF-8"?>
<svg id="Layer_1" xmlns="http://www.w3.org/2000/svg" version="1.1" viewBox="0 0 100 100">
  <!-- Generator: Adobe Illustrator 29.5.1, SVG Export Plug-In . SVG Version: 2.1.0 Build 141)  -->
  <defs>
    <style>
      .st0 {
        fill: #8c8c8c;
      }
    </style>
  </defs>
  <path class="st0" d="M48.5,6.28h3.19l1.94.12,2.31.25,2.25.38,2.62.56,2,.56,2.25.75,2,.81,2.19,1,1.5.75,1.5.88,1.25.75,1.38.94,1.12.81,1.62,1.25.62.56.69.56.81.75.62.56,1.94,1.94.44.5.75.88.56.69,1.25,1.62.69.94.75,1.12.81,1.31.75,1.31.75,1.44.75,1.56.69,1.62.81,2.19.5,1.56.62,2.19.5,2.31.38,2.31.19,1.44.12,1.62.06,1.31v3.56l-.19,2.69-.25,1.69-.5,2.88-.56,2.25-.56,1.94-.5,1.5-.75,1.94-1.06,2.38-.5,1-.62,1.12-.75,1.25-.81,1.31-.69.94-.44.69-.75,1-1.12,1.38-.69.75-.56.69-.94,1-1.69,1.69-.5.44-.62.56-.69.56-.75.62-.69.56-1.19.88-2.12,1.38-.94.56-1.62.94-2,1-2.31,1-2.56.94-1.69.5-3,.75-2.94.5-2.44.31-2.75.19h-2l-2.31-.12-2-.19-3.31-.56-1.69-.38-2.25-.62-1.81-.56-2.06-.81-1.56-.69-1.56-.75-1-.5-1.69-.94-1.31-.81-1.19-.81-1.75-1.25-1.06-.88-.69-.56-1-.94-.5-.44-.62-.62-.81-.75-.56-.62-.44-.44-.44-.5-1.5-1.75-.81-1.06-.75-1.06-.69-1-.62-.94-.62-1.06-.62-1.12-.75-1.44-.56-1.19-.44-.94-.75-1.81-.75-2.12-.5-1.62-.81-3.31-.44-2.5-.25-2.19-.12-2.12v-3.69l.19-2.69.25-1.69.44-2.5.44-1.94.75-2.56.81-2.31.69-1.62.56-1.25,1-2,.75-1.38.5-.81.62-1,1-1.5.88-1.12.62-.81.69-.88.5-.56.56-.69.94-1,1.94-1.94.5-.44.62-.56.69-.56,1-.81,1.19-.88.88-.62,1.44-.94,1.56-.94,1.5-.81,1.44-.75,1.75-.81,2.12-.81,2.06-.69,2.75-.75,2.5-.5,2.62-.38,2.31-.19,1.12-.06ZM47.5,10.34l-2.25.38-2.56.38-1.81.38-1.38.38-.31.31-.5,1.25-.81,1.75-1,2.5-1.12,3.25-.69,2.19-.75,2.62-.38,1.12v.25l3.38.06h8.5l1.81-.06.31-.12V10.34h-.44ZM52.12,10.41l-.06,2.69v13.94l.06.06.62.06h8.69l4.31-.06.25-.06-.06-.56-.69-2.44-.56-1.94-.69-2.19-.44-1.25-.88-2.31-.75-1.81-.69-1.5-.44-.88-.38-.31-1.06-.31-2.69-.56-2.19-.31-2.06-.25h-.31ZM66.06,13.84l.62,1.5.62,1.56.75,2.25.62,1.94.81,2.88.62,2.5.25.5.31.19h5.38l5.19-.06.88-.12-.06-.25-.5-.62-.56-.62-.5-.62-.69-.81-.88-.94-.75-.81-1.06-1.06-.5-.44-1-.94-.69-.56-1.12-.88-.75-.56-1.19-.81-1.44-.94-1.5-.81-1.31-.75-1.06-.5-.38-.19h-.12ZM33.75,13.97l-1.25.56-1,.5-1.25.69-.88.5-1,.62-.69.5-1.12.81-.69.5-1,.81-.88.75-.81.75-.5.44-.69.69-.44.5-.56.56-.44.5-.56.62-.69.81-.56.62-.62.69-.44.5v.06l.75.06,3.81.06h7.12l.31-.19.19-.44.44-1.88.69-2.5.5-1.69.94-2.69,1-2.56.38-.81v-.38h-.06ZM16.88,31.16l-1.5.06-.19.19-.62,1.38-.5,1-.81,2-.5,1.31-.75,2.31-.69,2.81-.38,1.88-.44,3-.06.81.06.06h16.62l.19-2.88.31-4.38.44-3.94.5-3.69.25-1.56v-.38h-11.94ZM33.44,31.16l-.44.12-.56,3.69-.44,3.06-.25,2.88-.44,6.5v.56h16.38l.25-.12v-16.56l-.06-.06-4.75-.06h-9.69ZM52.19,31.16l-.12.06v16.75h16.19l.38-.06-.06-1.81-.25-4.12-.38-4.06-.38-3.19-.25-1.75-.25-1.44-.25-.38h-14.62ZM79.62,31.16l-8.38.06-.12.06.25,1.06.75,6.06.31,3.44.19,3.81.06,1.88.06.44h15.19l1.31-.06.25-.06-.06-.94-.31-2.38-.38-2.12-.69-2.75-.56-1.94-.81-2.31-.81-1.94-.75-1.56-.38-.62-.19-.12h-4.94ZM10.5,51.97l-.06.06.06,1,.38,2.81.44,2.12.5,2.12.62,2.12.62,1.88.75,1.81.31.62.19.19h13.81l.31-.06-.12-1.44-.44-4-.25-2.69-.38-5.69-.06-.81-.06-.06H10.5ZM31.44,51.97l-.06.06v.88l.25,4.06.25,3.31.38,3.5.31,2.25.19.62,7.19.06h7.94l.06-.38v-14.31l-2.44-.06h-14.06ZM52.19,51.97l-.12.06v14.62l.06.06h15l.12-.06.31-1.88.38-2.81.19-1.94.44-5.75.12-1.62v-.62l-3.5-.06h-13ZM72.81,51.97l-.06.25-.25,5.06-.19,2.31-.44,3.94-.31,2.69v.44l5.88.06h7.62l.56-.06.31-.25.94-2.19.81-2.38.5-1.81.69-2.94.44-2.5.25-1.88v-.56l-.31-.12-3.25-.06h-13.19ZM16.44,70.66l.12.38.69,1.06.81,1.12.88,1.12.56.69.69.81.44.5.69.75.75.81.69.69.5.44.88.81.69.56.81.69.75.56.88.62.94.62,1.25.81,1.56.88.88.5,1.5.81.5.25-.06-.31-.44-1-1.19-3.19-.69-2.19-.5-1.75-1.56-6.25-.19-.62-.12-.12h-2.06l-4.94.06h-1.75l-3.5-.06-.44-.06ZM33.44,70.78l.25,1,.62,2.62.81,2.81.81,2.56.94,2.62,1.06,2.62.94,2.06.38.69.31.25.75.31,1.19.31,1.62.31,3.12.44,1,.12h.62l.06-.38v-18.38h-14.5ZM66,70.72l-13.88.06-.06.81v17.88h.69l2.81-.31,1.88-.31,2.19-.44.75-.25.38-.25.25-.31.56-1.31.44-.94,1-2.5.88-2.44.81-2.5,1.06-3.75.75-2.94.06-.5h-.56ZM71.31,70.72l-.44.12-.19.44-.69,2.62-.44,1.94-.75,2.75-.75,2.38-.56,1.62-.69,1.81-.62,1.44-.06.25.56-.19,1.06-.5,3.06-1.81,1.38-.88.94-.69.69-.5,1-.75.88-.75.5-.44.75-.69.5-.44.25-.25v-.12l.25-.12.56-.56.44-.5.5-.5.88-1,.5-.62.62-.81.75-1,.94-1.44.31-.69v-.12h-12.12Z"/>
</svg>