<?xml version="1.0" encoding="UTF-8"?>
<svg id="Layer_1" xmlns="http://www.w3.org/2000/svg" version="1.1" viewBox="0 0 100 100">
  <!-- Generator: Adobe Illustrator 29.5.1, SVG Export Plug-In . SVG Version: 2.1.0 Build 141)  -->
  <path d="M48.31,6.19h3.56l2.62.19,1.44.19,2,.38,2.5.62,1.56.5,1.75.62,1.56.69,1.81.88,1.5.81,1.44.88,1,.69,1.12.81.69.5,1,.81.69.56,1.62,1.5,1.06,1.06.44.5.81.88.56.69.75.94.81,1.12.5.75.81,1.25.81,1.38.5.94.69,1.44.5,1.06,1,2.62.56,1.81.69,2.75.38,2.31.19,1.5.19,2.12.06,1.56v.88l-.06,1.62-.31,2.5-.44,2.56-.31,1.31-.75,2.56-.81,2.25-.62,1.5-.88,1.81-1.06,2.12-.75,1.31-.75,1.19-.5.81-.62.94-.81,1.19-.81,1.12-.56.75-.81,1-.69.88-.88,1.06-.5.62-.69.75-.56.69-.44.44-.44.5-.62.62-.06.12h-.12l-.12.25-.25.12v.12h-.12v.12h-.12l-.12.25-1.5,1.5-.5.44-.81.81-.5.44-.88.81-.5.44-.62.56-.94.81-.62.5-1.12.88-.44.38-.81.62-.69.56-.88.69-1.19.88-.69.5-1,.75-.94.69-.94.62-1.19.81-.81.56-2.38,1.5-.69.5-.56-.06-1.69-1-1.06-.69-1.5-1-.81-.56-.62-.44-.88-.62-1.19-.88-.81-.62-1.25-.94-1.06-.81-.81-.62-1.06-.88-.88-.69-.69-.62-.62-.5-.75-.69-.69-.56-1.06-1-.5-.44-1.31-1.31-.38-.31-.38-.44-.38-.31-.44-.5-1.81-1.81-.44-.5-.75-.88-.81-.94-.56-.69-.69-.81-.69-.88-.88-1.12-.88-1.19-.88-1.25-.94-1.44-.88-1.38-.75-1.31-.81-1.5-1.19-2.38-.75-1.75-.56-1.5-.69-2.06-.56-2.12-.44-2-.38-2.62-.12-1.56v-3.75l.12-1.69.5-3.38.44-2.06.75-2.56.38-1.12.69-1.75.94-2.06.88-1.69,1.31-2.19,1.12-1.62.88-1.19.5-.62.69-.88.56-.56.44-.5.81-.81.31-.38.5-.44.62-.62.5-.44.56-.5.62-.5,1-.75,1.25-.88.94-.62,1.12-.69,1-.62,2.5-1.25,1.5-.62,1.88-.69,1.69-.56,2.5-.62,2-.38,2.06-.25,2.31-.12ZM47.81,12.44l-2.56.25-1.75.31-2,.5-2.19.69-1.88.75-2.19,1.06-1.75,1-1.5,1-.69.56-.75.56-.69.56-.62.56-.81.75-.5.44-.44.44v.12l-.25.12v.12l-.19.06-.44.5-.56.62-.81,1-.62.88-.5.75-.94,1.44-.88,1.62-.5,1-.56,1.25-.5,1.25-.56,1.56-.44,1.56-.56,2.56-.25,1.5-.19,2.12v3.19l.25,2.5.44,2.19.62,2.31.75,2.12.69,1.69.75,1.69.62,1.19.69,1.31.81,1.38.44.69,1.5,2.25.56.75.5.69.75,1,.88,1.12.81.94.69.81.56.62.44.5.75.81.38.44h.12l.12.25,2.69,2.69.5.44.81.75.69.56.56.56.69.56.5.5.69.56.62.56.69.5,1,.81,1.06.81,1,.75,1.12.81,1.06.75,2.06,1.38.69.5.5.12.56-.06,1-.62,2.81-1.88,3-2.25.81-.62.81-.69.62-.5.88-.75.62-.56.62-.5.94-.88.5-.44.69-.62.5-.44.44-.44.5-.44,2.12-2.12.44-.5.56-.56.44-.5.06-.19h.12l.5-.62.25-.25v-.12h.12l.56-.69.69-.81.81-1.06.56-.69.38-.5.69-.94,1.62-2.44.94-1.5.75-1.31.62-1.31.56-1.06,1-2.38.62-1.69.5-1.62.38-1.44.44-2.25.19-1.69.06-.81v-3.12l-.19-2.25-.38-2.38-.38-1.62-.44-1.56-.38-1.12-.75-1.94-.75-1.62-.75-1.38-.75-1.31-.75-1.12-.75-1.06-.62-.81-.75-.88-.75-.81-.56-.62-.62-.62-.5-.44-.81-.75-.88-.69-.81-.62-1.06-.75-1.5-.94-1.56-.88-1.06-.56-1.88-.81-2.12-.75-1.81-.5-1.62-.38-2-.31-2-.19h-4.12Z"/>
  <path d="M48.38,27h3l1.88.19,1.56.31,1.69.56,1.56.75,1.12.62,1.06.75,1,.81.5.44.44.5.44.44.69.88.56.81.69,1.19.62,1.31.56,1.5.44,1.56.31,1.62.12,1.06.06,1.56-.12,1.75-.19,1.19-.5,2-.38,1.12-.69,1.56-.56,1.06-.69,1.12-.69.88-.56.62-.25.31-.31.31-.81.69-.88.69-.94.62-.75.44-1.38.62-1.5.56-1.56.38-2.19.38-1.5.12h-.81l-1.69-.12-2-.31-1.56-.44-1-.38-1.25-.56-1.12-.62-1.06-.75-1-.81-.94-.88-.06-.19h-.12l-.56-.69-.81-1.06-.81-1.38-.5-1-.56-1.31-.56-1.69-.38-1.69-.19-1.69v-2.19l.19-1.75.31-1.38.5-1.69.38-.94.69-1.5.75-1.31.75-1.06.56-.69.25-.31h.12l.12-.25.25-.25h.12l.12-.25h.12v-.12l.69-.56.81-.62,1.44-.88,1.06-.56,1.62-.62,1.25-.38,1.31-.25,1.69-.19ZM48.88,33.25l-1.56.19-1.5.38-1.19.56-.75.5-.75.56-.5.44v.12h-.12l-.44.5-.62.88-.69,1.19-.5,1.12-.31,1-.25,1.31-.06.75v1.75l.12,1.25.31,1.31.62,1.5.56,1.06.75,1,.56.62.44.44,1.06.75,1.31.69,1.19.44,1.56.31.62.06h2.25l1.69-.25,1.19-.31,1.56-.69.88-.56.81-.62.94-.94.69-1,.5-.94.5-1.19.31-1.31.19-1.19v-2.56l-.19-1.25-.38-1.38-.5-1.12-.5-1-.62-.88-.69-.75-.5-.5-.69-.5-.88-.56-1.12-.5-1.19-.38-1.56-.25-.75-.06h-1.81Z"/>
</svg>