<?xml version="1.0" encoding="UTF-8"?>
<svg id="Layer_1" xmlns="http://www.w3.org/2000/svg" xmlns:xlink="http://www.w3.org/1999/xlink" version="1.1" viewBox="0 0 23 23">
  <!-- Generator: Adobe Illustrator 29.5.1, SVG Export Plug-In . SVG Version: 2.1.0 Build 141)  -->
  <defs>
    <style>
      .st0 {
        fill: none;
      }

      .st1 {
        fill: #8f8f8f;
      }

      .st2 {
        clip-path: url(#clippath);
      }
    </style>
    <clipPath id="clippath">
      <rect class="st0" x=".5" y=".5" width="22" height="22"/>
    </clipPath>
  </defs>
  <g class="st2">
    <path class="st1" d="M20.06.5c.65,0,1.27.26,1.73.72.46.46.72,1.08.72,1.73v17.11c0,.65-.26,1.27-.72,1.73s-1.08.72-1.73.72H2.94c-.65,0-1.27-.26-1.73-.72-.46-.46-.72-1.08-.72-1.73V2.94c0-.65.26-1.27.72-1.73.46-.46,1.08-.72,1.73-.72h17.11ZM19.44,19.44v-6.48c0-1.06-.42-2.07-1.17-2.82-.75-.75-1.76-1.17-2.82-1.17s-2.25.64-2.84,1.59v-1.36h-3.41v10.23h3.41v-6.03c0-.94.76-1.71,1.7-1.71.45,0,.89.18,1.21.5s.5.76.5,1.21v6.03h3.41ZM5.24,7.3c.54,0,1.07-.22,1.45-.6.39-.39.6-.91.6-1.45,0-1.14-.92-2.07-2.05-2.07-.55,0-1.07.22-1.46.6-.39.39-.6.91-.6,1.46,0,1.14.93,2.05,2.07,2.05ZM6.94,19.44v-10.23h-3.39v10.23h3.39Z"/>
  </g>
</svg>