<?xml version="1.0" encoding="UTF-8"?>
<svg id="Layer_1" xmlns="http://www.w3.org/2000/svg" version="1.1" viewBox="0 0 23 23">
  <!-- Generator: Adobe Illustrator 29.5.1, SVG Export Plug-In . SVG Version: 2.1.0 Build 141)  -->
  <defs>
    <style>
      .st0 {
        fill: #8f8f8f;
      }
    </style>
  </defs>
  <path class="st0" d="M11.5,3.8c4.61,0,7.48.18,8.61.48.99.28,1.63.91,1.9,1.9.14.52.24,1.21.31,2.09.08.88.11,1.64.11,2.3l.07.92c0,2.41-.18,4.18-.48,5.31-.27.99-.91,1.63-1.9,1.9-.52.14-1.46.24-2.92.31-1.43.08-2.74.11-3.95.11l-1.75.07c-4.61,0-7.48-.18-8.61-.48-.99-.27-1.63-.91-1.9-1.9-.14-.52-.24-1.21-.31-2.09-.08-.88-.11-1.64-.11-2.3l-.07-.92c0-2.41.18-4.18.48-5.31.28-.99.91-1.63,1.9-1.9.52-.14,1.46-.24,2.92-.31,1.43-.08,2.74-.11,3.95-.11l1.75-.07ZM9.3,14.8l5.71-3.3-5.71-3.3v6.6Z"/>
</svg>