<?xml version="1.0" encoding="UTF-8"?>
<svg id="Layer_1" xmlns="http://www.w3.org/2000/svg" version="1.1" viewBox="0 0 23 23">
  <!-- Generator: Adobe Illustrator 29.5.1, SVG Export Plug-In . SVG Version: 2.1.0 Build 141)  -->
  <defs>
    <style>
      .st0 {
        fill: #8f8f8f;
      }
    </style>
  </defs>
  <path class="st0" d="M16.12.5c3.52,0,6.38,2.86,6.38,6.38v9.24c0,1.69-.67,3.31-1.87,4.51s-2.82,1.87-4.51,1.87H6.88c-3.52,0-6.38-2.86-6.38-6.38V6.88c0-1.69.67-3.31,1.87-4.51,1.2-1.2,2.82-1.87,4.51-1.87h9.24ZM6.66,2.7c-1.05,0-2.06.42-2.8,1.16-.74.74-1.16,1.75-1.16,2.8v9.68c0,2.19,1.77,3.96,3.96,3.96h9.68c1.05,0,2.06-.42,2.8-1.16.74-.74,1.16-1.75,1.16-2.8V6.66c0-2.19-1.77-3.96-3.96-3.96H6.66ZM11.5,6c1.46,0,2.86.58,3.89,1.61,1.03,1.03,1.61,2.43,1.61,3.89s-.58,2.86-1.61,3.89-2.43,1.61-3.89,1.61-2.86-.58-3.89-1.61c-1.03-1.03-1.61-2.43-1.61-3.89,0-1.46.58-2.86,1.61-3.89,1.03-1.03,2.43-1.61,3.89-1.61ZM11.5,8.2c-.88,0-1.72.35-2.33.97s-.97,1.46-.97,2.33c0,.88.35,1.71.97,2.33.62.62,1.46.97,2.33.97s1.71-.35,2.33-.97c.62-.62.97-1.46.97-2.33s-.35-1.72-.97-2.33c-.62-.62-1.46-.97-2.33-.97ZM17.27,4.35c.36,0,.71.15.97.4.26.26.4.61.4.97,0,.36-.14.71-.4.97-.26.26-.61.4-.97.4-.36,0-.71-.14-.97-.4-.26-.26-.4-.61-.4-.97,0-.36.15-.71.4-.97.26-.26.61-.4.97-.4Z"/>
</svg>