<?xml version="1.0" encoding="UTF-8"?>
<svg id="Layer_1" xmlns="http://www.w3.org/2000/svg" version="1.1" viewBox="0 0 23 23">
  <!-- Generator: Adobe Illustrator 29.5.1, SVG Export Plug-In . SVG Version: 2.1.0 Build 141)  -->
  <defs>
    <style>
      .st0 {
        fill: #8f8f8f;
      }
    </style>
  </defs>
  <path class="st0" d="M11.5.54c6.05,0,11,4.94,11,11.02,0,2.62-.93,5.16-2.63,7.16-1.7,2-4.06,3.32-6.66,3.73v-7.7h2.56l.5-3.19h-3.06v-2.07c0-.87.43-1.72,1.79-1.72h1.39v-2.72s-1.27-.21-2.45-.21c-2.52,0-4.16,1.52-4.16,4.28v2.43h-2.79v3.19h2.79v7.7C4.53,21.63.5,17.07.5,11.57c0-6.08,4.95-11.02,11-11.02Z"/>
</svg>