<?xml version="1.0" encoding="UTF-8"?>
<svg id="Layer_1" xmlns="http://www.w3.org/2000/svg" version="1.1" viewBox="0 0 100 100">
  <!-- Generator: Adobe Illustrator 29.5.1, SVG Export Plug-In . SVG Version: 2.1.0 Build 141)  -->
  <path d="M34.03,8.09h.5l.31.38.62,1.62,1,2.38,1.06,2.56.75,1.81,1,2.44,1.06,2.5.69,1.69.94,2.31.81,1.88.62,1.5.81,1.94.62,1.38v.31l-.56.62-.06.12h-.12l-.12.25-.88.88-.06.12h-.12l-.12.25-1.5,1.5-.06.12h-.12l-.12.25-.75.75-.44.5-.5.5-.44.5-1.25,1.25-.44.5-.88.88-.56.44-.19.25.12.38.5.75,1.5,2.12.81,1.12.62.88,1.25,1.62.75.94.56.69.56.62.44.5.56.62.44.5.75.81.56.56v.12l.25.12.94.94.5.44,1.06,1,.88.75.75.62,1.56,1.25,1.06.81,1,.75.94.62.88.62,1,.69.75.56.62.44.31-.06,1.12-1.12.5-.44,1.75-1.75.5-.44,1.5-1.5.5-.44.62-.62.5-.44.62-.62.5-.44,1.25-1.25.25-.12h.38l1.62.75,1.69.69,1.56.62,1.19.5,1.81.75,6,2.5,1.62.69,1.25.5,1.31.56,2.44,1,1.31.56,2.25.94.38.25.06.19-.56,1.5-.62,1.75-.5,1.31-.56,1.62-.44,1.12-.62,1.81-.88,2.38-.44,1.25-1.19,3.31-1.12,3.06-.38,1.06-.69,1.88-.75,2.12-.62,1.5-.31.56-.44.06-1.94-.38-3.38-.69-2.25-.5-3.75-1-2.56-.81-4-1.31-2.75-1-2.62-1.06-1.88-.81-2.12-.94-3-1.5-2.88-1.56-1.19-.69-1.56-.94-1.06-.69-1-.62-1.38-.94-1.06-.75-1.12-.81-1.31-1-.62-.5-.88-.69-.81-.69-.69-.56-.25-.19v-.12l-.25-.12-1-.94-.5-.44-1-.94-2.44-2.44-.44-.5-.94-1-.56-.62-.56-.69-.75-.88-.62-.81-.56-.69-.62-.81-.88-1.19-.75-1.06-1-1.44-.69-1.06-1-1.56-1.19-2-.81-1.44-.81-1.5-.75-1.38-.5-1-1-2.06-1.12-2.56-1.12-2.69-1-2.69-.75-2.12-1.12-3.56-.62-2.06-.5-1.75-.81-3.44-.75-3.75-.31-1.69v-.44l.25-.38.75-.38,3.12-1.06,1.75-.69,1.06-.38,3.44-1.25,3.69-1.31,2.56-.94,1.25-.44,1.19-.44,1.75-.62,2.12-.75,1.56-.56,1.5-.56ZM31.22,15.66l-1,.25-2.62.94-3.88,1.38-4.06,1.5-1.81.62-2.38.81-.5.31.06.38.69,3.06.5,2,.81,2.94.81,2.56,1,2.88.88,2.25.62,1.5.75,1.75,1,2.25.81,1.69.5,1,.94,1.75.88,1.5.81,1.38.94,1.5,1.56,2.31.56.81.75,1,1.25,1.62.56.69.5.62.75.88.69.81.94,1,.69.75.75.75.44.5.75.69.69.69h.12l.12.25h.12l.06.19.5.44.19.06.06.19.5.44.62.5.62.56.62.5,1.06.88,1.75,1.31,1.12.81,1.06.75,1.25.81,1.38.88,1.56.94,1.5.88,1.75.94,1.44.75,1.44.69,2.56,1.12,1.81.81,1.06.44,1.62.62,1.25.44,2.31.81,2.25.75,2.56.75,3,.75,1.81.44.5.12.38.06h.62l.25-.31.56-1.69.62-1.75.88-2.44,1.25-3.44.81-2.31.75-2,.56-1.56.06-.56-.19-.19-.88-.38-1.69-.69-1.94-.81-1.81-.75-2.62-1.12-3.25-1.31-1.81-.75-1.31-.56-.06-.06h-.31l-.31.25v.12h-.12l-.44.5-.81.75-2.25,2.25-.19.12v.12l-.25.12-.88.88-.44.38-.25.31-.5.44-.81.81-.5.44v.12h-.12v.12l-.25.12-.94.94-.44.38-.44.5-.5.31-.31-.06-.81-.5-.94-.69-.69-.44-.94-.62-.69-.44-.94-.69-1.12-.81-.69-.5-1.31-1-.75-.56-.62-.5-1.06-.81-.94-.75-.69-.56-.81-.69-.5-.44-.69-.56-.5-.5-.5-.44-1-.94-1.38-1.38-.44-.5-.94-1-.56-.69-.69-.75-.56-.69-.75-.88-1.38-1.75-.75-1-.81-1.06-.88-1.19-.81-1.12-.88-1.25-.75-1.06-1.38-2.06-.56-.81-.12-.25.06-.38.69-.75.44-.38.44-.5,2-2,.44-.5.31-.31.56-.62,1.06-1.06.75-.81.69-.69.38-.44.44-.38.44-.5,1.25-1.25-.06-.44-.31-.81-.69-1.69-1.25-2.94-1.06-2.56-.69-1.69-1.5-3.75-.44-1.19-.25-.62-.19-.31h-.06Z"/>
  <path d="M50,50"/>
</svg>