<?xml version="1.0" encoding="UTF-8"?>
<svg fill="#FFFFFF" id="Layer_1" xmlns="http://www.w3.org/2000/svg" version="1.1" viewBox="0 0 100 100">
  <!-- Generator: Adobe Illustrator 29.5.1, SVG Export Plug-In . SVG Version: 2.1.0 Build 141)  -->
  <path d="M5.19,26.03h66.62l1,.12.56.25.38.44.12.94.12,3.56v1.19l1.56-.31,1.44-.12,1.31-.06,2.81-.06h1.69l1.75.06,1.75.19,1,.19,1.19.44,1.19.62.81.56.81.75.69.69.81,1.06.75,1.19.75,1.38,1,1.81.75,1.44.56,1,.5,1,.69,1.44.88,2.12.56,1.81.62,2.62.12-.19v18.19l-.19.06-.38.62-.31.62-.44.69-.69.88-.88.88-.69.5-1,.56-1,.44-1.12.38-.38.31-.44.62-.44.44-.06.12h-.12v.12h-.12l-.12.25-.62.56-.88.56-.94.44-.94.31-1.06.19-.62.06h-1.5l-1.38-.19-1.06-.31-1.19-.62-.69-.56-.81-.81-.81-1.06-.31-.31h-21.75l-.25.06-.81,1.06-1.12,1.12-.88.56-1,.5-1.12.38-1.19.19h-1.75l-1.12-.19-1-.31-1.19-.62-.75-.56-.75-.69-.69-.88-.5-.81-.44-.88-.44-1.31-.12-1v-.62l.12-1.25.38-1.38.5-1.44h-1.69l-6.19.06-.06.19.5,1.12.25,1,.12.94.06.81v.75l-.06.81-.31,1-.38.88-.62,1.06-.75.94h-.12l-.12.25-.56.5-.81.5-1,.5-1.06.38-1.06.19-.69.06h-1.38l-1.25-.19-.94-.31-1.06-.56-.88-.69-.62-.56-.62-.75-.62-.94-.94-1.69-.25-.12-.88,1.75-.44.69-.44.56-.56.69-.69.56-.5.38-1.19.62-1.12.38-1.19.19h-1.75l-1.19-.19-1.06-.31-1.19-.62-.75-.56-.5-.44-.44-.5-.69-.94-.56-1-.5-1.31-.19-1v-1.69l.25-1.25.5-1.44.06-.56-.12-.06-2.5-.06-.81-.12-.88-.56-.5-.44V27.09l1.12-.81.25-.12.75-.06,3.06-.06h.03ZM11.44,29.97l-7.44.06-.06,16.12v17.88l2.94.06,63.06-.06.06-.06-.06-33.94-2.06-.06H11.44ZM79,36.03l-2.19.06-1.56.12-.62.19-.38.31-.19.62-.06,1.12-.12,27.69-.12,1-.31.31-.75.38-.25.06-4.31.06-11.12.06-.06.12.44,1.19.5,2.31.12.31.38.06h19.56l.06-.06.12-1.56.31-1.19.5-1.12.44-.75.69-.88.5-.5,1.19-.81,1-.5,1.06-.31.81-.12.81-.06h.94l1.38.12,1,.25,1,.38,1,.62.81.75.62.69.56.88.56,1.19.31.94.25.94.19.5.25-.06.56-.44.56-1.06.25-.56.12-.62.06-.88.06-10.44v-1.81l-.06-1.44-.12-.06-12.12-.06-.94-.12-.75-.31-.69-.56-.5-.62-.44-.75-.25-.81-.06-.62-.06-3.06.06-2.88.12-1.19.25-.69.44-.69.69-.69.75-.5.56-.19.94-.12,1.25-.06,4.19-.06.88-.06-.06-.38-.38-.56-.75-.88-.75-.81-.69-.5-.94-.44-.75-.19-1.12-.12-1.19-.06h-4.44v-.02ZM84.12,44.03l-.12.06-.06.31v5.56l.19.06h10.69l.25-.12-.25-.75-.81-2-.62-1.5-.5-1-.25-.38-.25-.19-1.06-.06h-7.21ZM11.44,68.03l-.62.12-.75.38-.81.62-.44.5-.56,1-.25.81-.06.56.12.88.25.75.44.69.5.62.75.56.5.25.94.25h1.12l.81-.25.94-.56.69-.62.56-.88.25-.75.06-.38v-.88l-.12-.75-.25-.69-.44-.69-.75-.75-.81-.5-.88-.25-.5-.06h-.69v.02ZM27.19,68.09l-.81.25-.69.44-.62.56-.44.56-.38.75-.25.75-.06.69.12.88.25.75.56.81.5.56.94.62.81.25.38.06h1l.81-.25.69-.38.75-.56.56-.75.38-.75.19-.75v-1.06l-.25-1-.44-.75-.56-.62-.44-.38-.75-.44-1-.25h-1.25,0ZM49.75,68.03l-.88.12-.62.25-.88.62-.44.44-.62,1-.31,1v1.06l.25,1,.38.69.56.69.81.62.5.25.88.25h1.19l.81-.25,1-.62.56-.5.56-.88.31-.75.06-.25v-1.31l-.19-.75-.38-.75-.44-.56-.56-.56-.69-.44-.75-.25-1.12-.12h0ZM85,68.09l-.62.19-.69.38-.69.56-.5.88-.25.5-.19.88-.06.62.19,1.06.31.81.62,1,.56.5.75.38.81.19h1.38l.88-.25.75-.44.69-.56.56-.88.25-.62.12-.75v-.62l-.19-1.19-.31-.75-.56-.81-.44-.44-.69-.38-.62-.19-.44-.06h-1.62,0Z"/>
  <path d="M99.81,52.84h.19v.31l-.19-.12v-.19Z"/>
  <path d="M99.94,52.84h.06v.31h-.12s.06-.31.06-.31Z"/>
  <path d="M99.94,52.88l.06.25-.06-.25Z"/>
  <path d="M99.94,53"/>
</svg>